PathFileType	4	(X/Y/Z)	RBDS025\RBDS025runT35.trc
DataRate	CameraRate	NumFrames	NumMarkers	Units	OrigDataRate	OrigDataStartFrame	OrigNumFrames
150.000000	150.000000	6	33	mm	150.000000	3375	4500
Frame#	Time	L.ASIS			L.Heel.Bottom			L.Heel.Lateral			L.Heel.Top			L.Iliac.Crest			L.MT1			L.MT5			L.PSIS			L.Shank.Bottom.Lateral			L.Shank.Bottom.Medial			L.Shank.Top.Lateral			L.Shank.Top.Medial			L.Thigh.Bottom.Lateral			L.Thigh.Bottom.Medial			L.Thigh.Top.Lateral			L.Thigh.Top.Medial			R.ASIS			R.ASY			R.Heel.Bottom			R.Heel.Lateral			R.Heel.Top			R.Iliac.Crest			R.MT1			R.MT5			R.PSIS			R.Shank.Bottom.Lateral			R.Shank.Bottom.Medial			R.Shank.Top.Lateral			R.Shank.Top.Medial			R.Thigh.Bottom.Lateral			R.Thigh.Bottom.Medial			R.Thigh.Top.Lateral			R.Thigh.Top.Medial			
		X1	Y1	Z1	X2	Y2	Z2	X3	Y3	Z3	X4	Y4	Z4	X5	Y5	Z5	X6	Y6	Z6	X7	Y7	Z7	X8	Y8	Z8	X9	Y9	Z9	X10	Y10	Z10	X11	Y11	Z11	X12	Y12	Z12	X13	Y13	Z13	X14	Y14	Z14	X15	Y15	Z15	X16	Y16	Z16	X17	Y17	Z17	X18	Y18	Z18	X19	Y19	Z19	X20	Y20	Z20	X21	Y21	Z21	X22	Y22	Z22	X23	Y23	Z23	X24	Y24	Z24	X25	Y25	Z25	X26	Y26	Z26	X27	Y27	Z27	X28	Y28	Z28	X29	Y29	Z29	X30	Y30	Z30	X31	Y31	Z31	X32	Y32	Z32	X33	Y33	Z33	

3376	22.5	2103.769200746372	932.0915073202954	787.0252584887114	1528.164644042475	184.9267298893542	855.3208745273351	1556.26818066431	175.548510892411	808.4639191104217	1564.365122083106	209.9181359948937	847.886703868475	2053.829855175826	1017.262831669062	739.1739157353708	1689.762699814412	58.22499893804728	885.3533449657715	1651.85174036976	61.20554920510153	777.2072084516727	1956.432283981497	1015.169658456935	842.212964396858	1673.930162059818	254.4862882196969	775.7727029415959	1637.949360168601	282.8491573497561	807.7086876478195	1711.362909280464	323.2131977277768	757.1079195768577	1675.294765768787	351.5952516677568	785.7493376078736	1903.712571084678	620.0768547552384	724.7227608578656	1842.28585630202	636.7533178441406	759.9267275371255	1925.355963359145	726.3349748165344	714.8534871095874	1869.843973820982	742.224694820765	754.5363234402697	2120.588672386047	954.3396454251629	984.762527654654	2174.151220946437	121.1802559546895	966.7464670283877	1988.610009375233	124.153295170195	919.4994573827001	2011.358056021368	139.7185035805558	964.8235340082815	2009.796790966706	164.0241816827455	921.1127816091256	2069.234712556014	1027.863516045896	1033.358956894715	2197.518682089189	73.20736245725718	927.3516382848105	2145.439137216093	78.79224297845242	1026.024838562076	1960.594760481367	1016.723688693903	946.7160780849889	2097.572090975717	260.9193281456779	993.6603888842811	2062.367405208588	275.8143642368109	958.9047065029582	2118.41424218301	342.6044444431716	1004.733015008094	2080.638323521376	353.9407506512023	968.7721806024114	2179.933578819028	632.1500006023595	1031.608469344199	2125.002384491284	600.8473499638519	998.669989229508	2117.649232408266	720.355652761662	1053.31496635529	2064.177402857177	689.530273362459	1022.884918693314	
3377	22.50666666666667	2105.042377365217	933.7607848462117	787.5450524917312	1516.062093551509	198.2487025136953	850.8056446532112	1544.154985754639	186.8983736647826	804.3217064810916	1553.47422175147	221.4600835950694	843.3178413797069	2057.582514222732	1019.473012076691	739.5518181868645	1671.899356948057	63.63111576783785	882.9793080542073	1634.493767733956	66.85437214220185	775.0487683768453	1957.975950205198	1017.695211912056	841.7293942749864	1661.939937614426	263.0005897457229	772.4108558352719	1625.936066639244	291.1626166677593	804.5303490954974	1699.596773189924	331.8271245658868	754.5430694077602	1663.58402321844	360.0479010999804	783.4320620974652	1895.826492013048	627.1096870917403	724.5732724870196	1835.428142937705	645.6888527359579	760.5745985803966	1920.840422046623	732.6242124943739	714.8020026110433	1866.413827392047	750.2131434620859	755.388475248598	2121.122515486556	956.983464678263	985.3488023183378	2203.60248529775	120.9101885713937	962.807232990862	2018.350262118341	108.6073635255284	917.0524856006936	2040.19746985015	125.6958889540283	962.2873495765979	2036.094355969117	149.9840409654892	918.9146524716625	2069.048139632759	1031.157796023272	1033.616316847522	2230.397104520332	75.4702720854936	922.7525065439061	2179.365365132151	75.97305160921708	1021.901099555418	1961.735403964484	1019.45220971758	946.3188906527264	2116.749488200162	253.2241452920094	992.0795730281747	2080.493530344392	266.0830162634139	957.6570181302427	2131.759906060658	335.954166545081	1004.293164691164	2093.147831542867	345.0924622524278	968.5759121528124	2178.068626757444	633.0904538664444	1031.429130799984	2122.512601237051	602.0551003801762	999.2585521724758	2116.90640093507	722.0807006717101	1052.885908518839	2062.935167003759	691.7124382595009	1023.227761943085	
3378	22.51333333333334	2106.125141717133	935.22230604481	787.8494127186311	1504.184963358713	211.497514172594	846.0923717155014	1532.331139517971	198.418033718968	800.0640128928383	1542.639882907191	233.0395868820628	838.7427769663058	2060.888134748908	1021.384242973953	739.84979005021	1654.253492893958	69.7350547184349	880.5403263338052	1617.747559191163	73.38507825856111	772.7514217507171	1959.304614157392	1019.859651366903	841.297820126973	1650.620405651749	271.4716713065272	769.3044538000968	1614.484616023742	299.6815930538384	801.2070719929375	1688.816505634606	340.2182632713046	752.1903506993124	1652.743095098002	368.5134487315688	780.9006699875689	1889.009527153655	633.5893101077517	724.7318741994616	1829.630386774052	653.9789988752985	761.4473203297941	1917.141672645931	738.3128856690789	714.8410653749331	1863.773275556229	757.5127710997367	756.247700007465	2121.585615780381	959.0043539623005	985.7268783998557	2232.058925897586	122.0061881983491	958.6878672362217	2048.338165529598	94.64956627056624	914.6033210952615	2069.301211594374	113.0056238947664	959.7817392012919	2062.519609124405	137.1917238370971	916.8590744186365	2068.620096867224	1033.517495048535	1033.805630169145	2261.878677109862	79.58180950267921	917.7463284518664	2212.7016587652	74.68215311553142	1017.411944390247	1962.772334082499	1021.608036398899	945.9381254001032	2135.626160016902	246.1863811926206	990.5822852652578	2098.495290714266	257.0336863659371	956.4663500531377	2144.88065873975	329.4904515792888	1003.999416128445	2105.598809877116	336.4870095159952	968.5089061316382	2175.72700490972	632.9650114195462	1031.470439374604	2119.560494614832	602.3018931584519	999.9618681857787	2115.776427047278	722.8187627222292	1052.636325518138	2061.310522158818	692.9432843400591	1023.694415412717	
3379	22.52	2107.012787610608	936.4662545252341	787.9576228124854	1492.397606186662	224.6464862908241	841.3061662943215	1520.66591011794	210.0872090193112	795.7968806002178	1531.739292787332	244.6350712755948	834.283964061464	2063.634742271543	1023.019321554932	740.0701967739928	1636.724714216673	76.51481310652738	878.1043989327125	1601.524834769353	80.77901905337447	770.3552087745579	1960.41094751914	1021.670456793987	840.9491326591087	1639.881827054228	279.8489842498805	766.5028562933796	1603.565194354675	308.3977751272324	797.8223818718385	1678.977968169566	348.2882122101501	750.0704262221528	1642.784801683807	376.9332707281673	778.2085758011012	1883.428325933351	639.2887018358987	725.1551430535542	1824.988926653612	661.3763811690513	762.4190880832326	1914.379723553535	743.2112835776194	714.9353379739645	1861.96354879055	763.918259402859	756.9905440056106	2121.969970482476	960.3997578311976	985.8877169720513	2259.15232630035	124.3819583536192	954.520845608545	2078.151703990026	82.36294602809801	912.0759211852987	2098.230097446809	101.7276739545054	957.2560850951486	2088.69735937381	125.7337395642399	914.8828020682701	2068.05220033475	1034.943252486371	1033.932986914287	2291.604440565035	85.40806234610237	912.514924481293	2244.967446492672	74.85731055565473	1012.675310651179	1963.678944665129	1023.20314967368	945.6149709618527	2153.903341937852	239.9083267693793	989.1316127086038	2116.093464392581	248.7776435906815	955.2520739797442	2157.546932230618	323.3572090283768	1003.766460879685	2117.781014019516	328.2769503531337	968.4417659565037	2173.010744514923	631.8841616881975	1031.735310574389	2116.296605356771	601.7084926002653	1000.704357819026	2114.298419615666	722.6220714620965	1052.621781380748	2059.3927892866	693.2850158358013	1024.234715142616	
3380	22.52666666666667	2107.715617312477	937.4716995324119	787.9086301240909	1480.62094668908	237.7132546955268	836.573361532784	1509.071514083315	221.9083970363883	791.6229046520092	1520.714358471552	256.2523928778445	830.0493199501165	2065.738125172432	1024.400106265984	740.2243623360173	1619.248114535311	83.94762372485341	875.7394728451115	1585.72691345804	88.99701718654528	767.9109349165158	1961.298718262552	1023.130684263041	840.7075555926214	1629.642601167893	288.0969810941192	764.0372513056676	1593.168810026461	317.2990279293743	794.4680770594885	1670.025293710691	355.9573168986997	748.1932509259839	1633.725787061525	385.2498211554854	775.4304982730977	1879.212475208646	643.9902776615264	725.7808916799144	1821.56038108453	667.6359691216268	763.3496126794744	1912.634471098672	747.1419880771442	715.0475896674905	1860.985048520547	769.2323120989058	757.4971649756769	2122.269687228265	961.1838713895081	985.8480408466013	2284.501349039202	127.8754483320001	950.4469327354035	2107.3070228861	71.766194050054	909.3965209670502	2126.47305635002	91.8932511947834	954.6555560999884	2114.200091457104	115.6471196007836	912.9035118012446	2067.451358080869	1035.479775072003	1034.01119073494	2319.225557457664	92.70398078627693	907.2757124761813	2275.62981366923	76.36686142354637	1007.845460071636	1964.433399524487	1024.259816599951	945.3854211844938	2171.263540766608	234.448036235234	987.6790466034283	2132.983588375667	241.3891020396637	953.9293238484288	2169.514828591819	317.6701811207884	1003.495541821568	2129.464535346722	320.5931009820715	968.2369587590351	2170.022723071326	629.9864575556074	1032.204601543219	2112.868372420532	600.4189126648736	1001.397739679114	2112.515559847753	721.5749144841589	1052.872193425146	2057.270933393096	692.8348550376068	1024.783843681951	
3381	22.53333333333333	2108.256462569499	938.2086048109909	787.754779647179	1468.847980387637	250.7589541398361	832.0095791674519	1497.517758080068	233.9073639056289	787.6310381187299	1509.583413690755	267.9265679752879	826.1202343723744	2067.150484902581	1025.540848953329	740.3296564944684	1601.810381422469	92.01866420227184	873.5068738466199	1570.26293527298	97.98662639939479	765.4763804164037	1961.980699166197	1024.234915015428	840.5863798948212	1619.845268923619	296.2011373055171	761.9174232798498	1583.316021338945	326.3726080740208	791.2341847447959	1661.904738416148	363.1728317122147	746.5582206955013	1625.592812388734	393.4120836668965	772.6549255646412	1876.440282252715	647.5029357895814	726.5374073397164	1819.35632764012	672.5322303079677	764.1058002763716	1911.933043405453	749.9545265038614	715.1459728147521	1860.793858882813	773.2797935111118	757.6703012503092	2122.480798782372	961.3859198210328	985.6486454197407	2307.729463679402	132.2455824896788	946.5991432010492	2135.267292824025	62.80880182657508	906.5060815523017	2153.462441013368	83.4802501651661	951.9299445725067	2138.557956322751	106.9150167761014	910.8299635364325	2066.91482652754	1035.211985230093	1034.057288375527	2344.415852973187	101.1075652725348	902.258063173866	2304.127307661447	79.00367367879186	1003.098204485552	1965.019754279238	1024.805656783405	945.2742804288247	2187.386785483717	229.8091090239928	986.1691391245932	2148.848018060673	234.8970706022464	952.4191811808503	2180.542892253419	312.5044297295573	1003.085053951018	2140.411844050999	313.5338373839788	967.7653017138501	2166.865236637839	627.42854974339	1032.834219783714	2109.412605236838	598.5865863256913	1001.949937625915	2110.476111908288	719.7874640430379	1053.384360713899	2055.028004354368	691.7125148556077	1025.270141222406	
